<svg xmlns="http://www.w3.org/2000/svg" version="1.1" xmlns:xlink="http://www.w3.org/1999/xlink" xmlns:svgjs="http://svgjs.dev/svgjs" width="1000" height="1000" viewBox="0 0 1000 1000"><rect width="1000" height="1000" fill="#1f2d5a"></rect><g transform="matrix(0.7,0,0,0.7,149.57577560809125,282.1459801619434)"><svg viewBox="0 0 396 247" data-background-color="#1f2d5a" preserveAspectRatio="xMidYMid meet" height="623" width="1000" xmlns="http://www.w3.org/2000/svg" xmlns:xlink="http://www.w3.org/1999/xlink"><defs></defs><g id="tight-bounds" transform="matrix(1,0,0,1,0.23998989693922113,-0.09999999999999432)"><svg viewBox="0 0 395.52 247.2" height="247.2" width="395.52"><g><svg></svg></g><g><svg viewBox="0 0 395.52 247.2" height="247.2" width="395.52"><g><path d="M67.682-0.011h66.551l27.837 78.516-42.956 0-5.535-15.302 0.668 15.302-46.565 0zM197.795 179.268l3.724-10.573h42.016l-28.424 78.516h-34.98l-28.397-78.516h42.312zM260.939-0.011h66.899v78.516l-46.712 0 0.675-15.511-5.615 15.511h-42.901zM327.838 247.211h-51.113v-67.595l0.475-10.921 50.638 0zM118.656 179.616v67.595h-50.974v-78.516l50.498 0z" fill="#fbfbfb" data-fill-palette-color="tertiary"></path></g><g transform="matrix(1,0,0,1,0,92.9677574988097)"><svg viewBox="0 0 395.52 61.26448500238057" height="61.26448500238057" width="395.52"><g><svg viewBox="0 0 395.52 61.26448500238057" height="61.26448500238057" width="395.52"><g><svg viewBox="0 0 395.52 61.26448500238057" height="61.26448500238057" width="395.52"><g><svg viewBox="0 0 395.52 61.26448500238057" height="61.26448500238057" width="395.52"><g><svg viewBox="0 0 395.52 61.26448500238057" height="61.26448500238057" width="395.52"><g transform="matrix(1,0,0,1,0,0)"><svg width="395.52" viewBox="3.1700000762939453 -37.5 307.6399841308594 47.65999984741211" height="61.26448500238057" data-palette-color="#fbfbfb"><path d="M3.17-35.55L12.74-35.55 21.88-9.77 30.96-35.55 40.58-35.55 40.58 0 33.23 0 33.23-9.72 33.96-26.49 24.37 0 19.34 0 9.77-26.46 10.5-9.72 10.5 0 3.17 0 3.17-35.55ZM68.94 0L61.81 0Q61.33-0.95 61.11-2.37L61.11-2.37Q58.54 0.49 54.44 0.49L54.44 0.49Q50.56 0.49 48.01-1.76 45.46-4 45.46-7.42L45.46-7.42Q45.46-11.62 48.57-13.87 51.68-16.11 57.57-16.14L57.57-16.14 60.81-16.14 60.81-17.65Q60.81-19.48 59.87-20.58 58.93-21.68 56.91-21.68L56.91-21.68Q55.12-21.68 54.11-20.83 53.1-19.97 53.1-18.48L53.1-18.48 46.04-18.48Q46.04-20.78 47.46-22.73 48.87-24.68 51.46-25.79 54.05-26.9 57.27-26.9L57.27-26.9Q62.16-26.9 65.02-24.45 67.89-22 67.89-17.55L67.89-17.55 67.89-6.1Q67.92-2.34 68.94-0.42L68.94-0.42 68.94 0ZM55.98-4.91L55.98-4.91Q57.54-4.91 58.86-5.6 60.18-6.3 60.81-7.47L60.81-7.47 60.81-12.01 58.18-12.01Q52.88-12.01 52.54-8.35L52.54-8.35 52.51-7.93Q52.51-6.62 53.44-5.76 54.37-4.91 55.98-4.91ZM77.92-26.42L82.83-8.62 87.74-26.42 95.11-26.42 86.2 0 79.46 0 70.55-26.42 77.92-26.42ZM119.26-11.84L126.58-11.84Q126.16-6.1 122.34-2.81 118.52 0.49 112.27 0.49L112.27 0.49Q105.44 0.49 101.52-4.11 97.6-8.72 97.6-16.75L97.6-16.75 97.6-18.92Q97.6-24.05 99.41-27.95 101.21-31.86 104.57-33.95 107.93-36.04 112.37-36.04L112.37-36.04Q118.52-36.04 122.28-32.74 126.04-29.44 126.63-23.49L126.63-23.49 119.3-23.49Q119.04-26.93 117.39-28.48 115.74-30.03 112.37-30.03L112.37-30.03Q108.71-30.03 106.89-27.4 105.07-24.78 105.02-19.26L105.02-19.26 105.02-16.58Q105.02-10.82 106.77-8.15 108.51-5.49 112.27-5.49L112.27-5.49Q115.67-5.49 117.34-7.04 119.01-8.59 119.26-11.84L119.26-11.84ZM129.82-13.13L129.82-13.45Q129.82-17.38 131.34-20.46 132.85-23.54 135.7-25.22 138.54-26.9 142.3-26.9L142.3-26.9Q147.65-26.9 151.03-23.63 154.41-20.36 154.8-14.75L154.8-14.75 154.85-12.94Q154.85-6.86 151.45-3.19 148.06 0.49 142.35 0.49 136.64 0.49 133.23-3.17 129.82-6.84 129.82-13.13L129.82-13.13ZM136.88-12.94L136.88-12.94Q136.88-9.18 138.3-7.19 139.71-5.2 142.35-5.2L142.35-5.2Q144.91-5.2 146.35-7.17 147.79-9.13 147.79-13.45L147.79-13.45Q147.79-17.14 146.35-19.17 144.91-21.19 142.3-21.19L142.3-21.19Q139.71-21.19 138.3-19.18 136.88-17.16 136.88-12.94ZM159.19-26.42L165.81-26.42 166.03-23.46Q168.84-26.9 173.62-26.9L173.62-26.9Q178.72-26.9 180.63-22.88L180.63-22.88Q183.41-26.9 188.56-26.9L188.56-26.9Q192.86-26.9 194.96-24.4 197.06-21.9 197.06-16.87L197.06-16.87 197.06 0 189.98 0 189.98-16.85Q189.98-19.09 189.1-20.13 188.22-21.17 186-21.17L186-21.17Q182.82-21.17 181.6-18.14L181.6-18.14 181.63 0 174.57 0 174.57-16.82Q174.57-19.12 173.67-20.14 172.77-21.17 170.59-21.17L170.59-21.17Q167.59-21.17 166.25-18.68L166.25-18.68 166.25 0 159.19 0 159.19-26.42ZM226.25-13.33L226.25-12.96Q226.25-6.86 223.48-3.19 220.71 0.49 216 0.49L216 0.49Q212 0.49 209.53-2.29L209.53-2.29 209.53 10.16 202.48 10.16 202.48-26.42 209.02-26.42 209.26-23.83Q211.83-26.9 215.95-26.9L215.95-26.9Q220.83-26.9 223.54-23.29 226.25-19.68 226.25-13.33L226.25-13.33ZM219.2-13.48L219.2-13.48Q219.2-17.16 217.89-19.17 216.59-21.17 214.1-21.17L214.1-21.17Q210.78-21.17 209.53-18.63L209.53-18.63 209.53-7.81Q210.82-5.2 214.15-5.2L214.15-5.2Q219.2-5.2 219.2-13.48ZM238.07-37.5L238.07 0 230.99 0 230.99-37.5 238.07-37.5ZM256.03 0.49L256.03 0.49Q250.22 0.49 246.57-3.08 242.92-6.64 242.92-12.57L242.92-12.57 242.92-13.26Q242.92-17.24 244.46-20.37 246-23.51 248.82-25.21 251.64-26.9 255.25-26.9L255.25-26.9Q260.67-26.9 263.79-23.49 266.9-20.07 266.9-13.79L266.9-13.79 266.9-10.91 250.08-10.91Q250.42-8.33 252.14-6.76 253.86-5.2 256.5-5.2L256.5-5.2Q260.58-5.2 262.87-8.15L262.87-8.15 266.34-4.27Q264.75-2.03 262.04-0.77 259.33 0.49 256.03 0.49ZM255.23-21.19L255.23-21.19Q253.13-21.19 251.82-19.78 250.52-18.36 250.15-15.72L250.15-15.72 259.97-15.72 259.97-16.28Q259.92-18.63 258.7-19.91 257.48-21.19 255.23-21.19ZM272.29-32.91L279.35-32.91 279.35-26.42 283.86-26.42 283.86-21.24 279.35-21.24 279.35-8.06Q279.35-6.59 279.91-5.96 280.47-5.32 282.06-5.32L282.06-5.32Q283.23-5.32 284.13-5.49L284.13-5.49 284.13-0.15Q282.06 0.49 279.86 0.49L279.86 0.49Q272.44 0.49 272.29-7.01L272.29-7.01 272.29-21.24 268.43-21.24 268.43-26.42 272.29-26.42 272.29-32.91ZM299.95 0.49L299.95 0.49Q294.14 0.49 290.49-3.08 286.84-6.64 286.84-12.57L286.84-12.57 286.84-13.26Q286.84-17.24 288.38-20.37 289.92-23.51 292.74-25.21 295.56-26.9 299.17-26.9L299.17-26.9Q304.59-26.9 307.7-23.49 310.81-20.07 310.81-13.79L310.81-13.79 310.81-10.91 293.99-10.91Q294.34-8.33 296.06-6.76 297.78-5.2 300.41-5.2L300.41-5.2Q304.49-5.2 306.79-8.15L306.79-8.15 310.25-4.27Q308.67-2.03 305.96-0.77 303.25 0.49 299.95 0.49ZM299.14-21.19L299.14-21.19Q297.05-21.19 295.74-19.78 294.43-18.36 294.07-15.72L294.07-15.72 303.88-15.72 303.88-16.28Q303.83-18.63 302.61-19.91 301.39-21.19 299.14-21.19Z" opacity="1" transform="matrix(1,0,0,1,0,0)" fill="#fbfbfb" class="undefined-text-0" data-fill-palette-color="primary" id="text-0"></path></svg></g></svg></g></svg></g></svg></g><g></g></svg></g></svg></g></svg></g></svg><rect width="395.52" height="247.2" fill="none" stroke="none" visibility="hidden"></rect></g></svg></g></svg>